<svg width="54" height="52" viewBox="0 0 54 52" fill="none" xmlns="http://www.w3.org/2000/svg">
<path d="M28 2C28 3.10457 27.1046 4 26 4C24.8954 4 24 3.10457 24 2C24 0.89543 24.8954 0 26 0C27.1046 0 28 0.89543 28 2Z" fill="black" style="fill:black;fill-opacity:1;"/>
<path d="M28 2C28 3.10457 27.1046 4 26 4C24.8954 4 24 3.10457 24 2C24 0.89543 24.8954 0 26 0C27.1046 0 28 0.89543 28 2Z" fill="black" fill-opacity="0.2" style="fill:black;fill-opacity:0.2;"/>
<path d="M39.7321 6.21539C39.1798 7.17198 37.9566 7.49973 37 6.94744C36.0434 6.39516 35.7157 5.17198 36.2679 4.21539C36.8202 3.25881 38.0434 2.93106 39 3.48334C39.9566 4.03562 40.2843 5.25881 39.7321 6.21539Z" fill="black" style="fill:black;fill-opacity:1;"/>
<path d="M39.7321 6.21539C39.1798 7.17198 37.9566 7.49973 37 6.94744C36.0434 6.39516 35.7157 5.17198 36.2679 4.21539C36.8202 3.25881 38.0434 2.93106 39 3.48334C39.9566 4.03562 40.2843 5.25881 39.7321 6.21539Z" fill="black" fill-opacity="0.2" style="fill:black;fill-opacity:0.2;"/>
<path d="M47.7846 15.7321C46.828 16.2843 45.6048 15.9566 45.0526 15C44.5003 14.0434 44.828 12.8202 45.7846 12.268C46.7412 11.7157 47.9644 12.0434 48.5167 13C49.0689 13.9566 48.7412 15.1798 47.7846 15.7321Z" fill="black" style="fill:black;fill-opacity:1;"/>
<path d="M47.7846 15.7321C46.828 16.2843 45.6048 15.9566 45.0526 15C44.5003 14.0434 44.828 12.8202 45.7846 12.268C46.7412 11.7157 47.9644 12.0434 48.5167 13C49.0689 13.9566 48.7412 15.1798 47.7846 15.7321Z" fill="black" fill-opacity="0.2" style="fill:black;fill-opacity:0.2;"/>
<path d="M50 28C48.8954 28 48 27.1046 48 26C48 24.8954 48.8954 24 50 24C51.1046 24 52 24.8954 52 26C52 27.1046 51.1046 28 50 28Z" fill="black" style="fill:black;fill-opacity:1;"/>
<path d="M50 28C48.8954 28 48 27.1046 48 26C48 24.8954 48.8954 24 50 24C51.1046 24 52 24.8954 52 26C52 27.1046 51.1046 28 50 28Z" fill="black" fill-opacity="0.2" style="fill:black;fill-opacity:0.2;"/>
<path d="M45.7846 39.7321C44.828 39.1798 44.5003 37.9566 45.0526 37C45.6048 36.0434 46.828 35.7157 47.7846 36.268C48.7412 36.8202 49.0689 38.0434 48.5167 39C47.9644 39.9566 46.7412 40.2843 45.7846 39.7321Z" fill="black" style="fill:black;fill-opacity:1;"/>
<path d="M45.7846 39.7321C44.828 39.1798 44.5003 37.9566 45.0526 37C45.6048 36.0434 46.828 35.7157 47.7846 36.268C48.7412 36.8202 49.0689 38.0434 48.5167 39C47.9644 39.9566 46.7412 40.2843 45.7846 39.7321Z" fill="black" fill-opacity="0.2" style="fill:black;fill-opacity:0.2;"/>
<path d="M36.268 47.7846C35.7157 46.828 36.0434 45.6048 37 45.0526C37.9566 44.5003 39.1798 44.828 39.7321 45.7846C40.2843 46.7412 39.9566 47.9644 39 48.5167C38.0434 49.0689 36.8202 48.7412 36.268 47.7846Z" fill="black" style="fill:black;fill-opacity:1;"/>
<path d="M36.268 47.7846C35.7157 46.828 36.0434 45.6048 37 45.0526C37.9566 44.5003 39.1798 44.828 39.7321 45.7846C40.2843 46.7412 39.9566 47.9644 39 48.5167C38.0434 49.0689 36.8202 48.7412 36.268 47.7846Z" fill="black" fill-opacity="0.2" style="fill:black;fill-opacity:0.2;"/>
<path d="M24 50C24 48.8954 24.8954 48 26 48C27.1046 48 28 48.8954 28 50C28 51.1046 27.1046 52 26 52C24.8954 52 24 51.1046 24 50Z" fill="black" style="fill:black;fill-opacity:1;"/>
<path d="M24 50C24 48.8954 24.8954 48 26 48C27.1046 48 28 48.8954 28 50C28 51.1046 27.1046 52 26 52C24.8954 52 24 51.1046 24 50Z" fill="black" fill-opacity="0.2" style="fill:black;fill-opacity:0.2;"/>
<path d="M12.2679 45.7846C12.8202 44.828 14.0434 44.5003 15 45.0526C15.9566 45.6048 16.2843 46.828 15.732 47.7846C15.1798 48.7412 13.9566 49.0689 13 48.5167C12.0434 47.9644 11.7157 46.7412 12.2679 45.7846Z" fill="black" style="fill:black;fill-opacity:1;"/>
<path d="M12.2679 45.7846C12.8202 44.828 14.0434 44.5003 15 45.0526C15.9566 45.6048 16.2843 46.828 15.732 47.7846C15.1798 48.7412 13.9566 49.0689 13 48.5167C12.0434 47.9644 11.7157 46.7412 12.2679 45.7846Z" fill="black" fill-opacity="0.2" style="fill:black;fill-opacity:0.2;"/>
<path d="M4.21539 36.2679C5.17197 35.7157 6.39516 36.0434 6.94744 37C7.49972 37.9566 7.17197 39.1798 6.21539 39.732C5.2588 40.2843 4.03562 39.9566 3.48334 39C2.93105 38.0434 3.2588 36.8202 4.21539 36.2679Z" fill="black" style="fill:black;fill-opacity:1;"/>
<path d="M4.21539 36.2679C5.17197 35.7157 6.39516 36.0434 6.94744 37C7.49972 37.9566 7.17197 39.1798 6.21539 39.732C5.2588 40.2843 4.03562 39.9566 3.48334 39C2.93105 38.0434 3.2588 36.8202 4.21539 36.2679Z" fill="black" fill-opacity="0.2" style="fill:black;fill-opacity:0.2;"/>
<path d="M2 24C3.10457 24 4 24.8954 4 26C4 27.1046 3.10457 28 2 28C0.89543 28 -1.31719e-08 27.1046 0 26C1.31719e-08 24.8954 0.89543 24 2 24Z" fill="black" style="fill:black;fill-opacity:1;"/>
<path d="M2 24C3.10457 24 4 24.8954 4 26C4 27.1046 3.10457 28 2 28C0.89543 28 -1.31719e-08 27.1046 0 26C1.31719e-08 24.8954 0.89543 24 2 24Z" fill="black" fill-opacity="0.2" style="fill:black;fill-opacity:0.2;"/>
<path d="M6.21539 12.268C7.17197 12.8202 7.49972 14.0434 6.94744 15C6.39516 15.9566 5.17197 16.2843 4.21539 15.7321C3.2588 15.1798 2.93105 13.9566 3.48334 13C4.03562 12.0434 5.2588 11.7157 6.21539 12.268Z" fill="black" style="fill:black;fill-opacity:1;"/>
<path d="M6.21539 12.268C7.17197 12.8202 7.49972 14.0434 6.94744 15C6.39516 15.9566 5.17197 16.2843 4.21539 15.7321C3.2588 15.1798 2.93105 13.9566 3.48334 13C4.03562 12.0434 5.2588 11.7157 6.21539 12.268Z" fill="black" fill-opacity="0.2" style="fill:black;fill-opacity:0.2;"/>
<path d="M15.7321 4.21539C16.2843 5.17197 15.9566 6.39515 15 6.94744C14.0434 7.49972 12.8202 7.17197 12.268 6.21539C11.7157 5.2588 12.0434 4.03562 13 3.48334C13.9566 2.93105 15.1798 3.2588 15.7321 4.21539Z" fill="black" style="fill:black;fill-opacity:1;"/>
<path d="M15.7321 4.21539C16.2843 5.17197 15.9566 6.39515 15 6.94744C14.0434 7.49972 12.8202 7.17197 12.268 6.21539C11.7157 5.2588 12.0434 4.03562 13 3.48334C13.9566 2.93105 15.1798 3.2588 15.7321 4.21539Z" fill="black" fill-opacity="0.2" style="fill:black;fill-opacity:0.2;"/>
<path d="M53.4231 13.9232C53.4231 17.5131 50.5129 20.4232 46.9231 20.4232C43.3332 20.4232 40.4231 17.5131 40.4231 13.9232C40.4231 10.3334 43.3332 7.42322 46.9231 7.42322C50.5129 7.42322 53.4231 10.3334 53.4231 13.9232Z" fill="#FF6633" style="fill:#FF6633;fill:color(display-p3 1.0000 0.4000 0.2000);fill-opacity:1;"/>
</svg>
